# xmcd
#
# Track frame offsets: 
#        150
#        20477
#        32106
#        44342
#        58546
#        71209
#        81165
#        93782
#        106489
#        119174
#        132299
#
# Disc length: 1950 seconds
#
# Revision: 0
# Processed by: cddbd v1.5.2PL0 Copyright (c) Steve Scherf et al.
# Submitted via: ExactAudioCopy v1.0b3
#
DISCID=99079c0b
DTITLE=Merle Haggard - Icon
DYEAR=2013
DGENRE=Country
TTITLE0=1. I Think I'll Just Stay Here And Drink
TTITLE1=2. Workin' Man Blues
TTITLE2=3. Okie From Muskogee
TTITLE3=4. Ramblin' Fever
TTITLE4=5. The Bottle Let Me Down
TTITLE5=6. Mama Tried
TTITLE6=7. I Take A Lot Of Pride In What I Am
TTITLE7=8. Sing Me Back Home
TTITLE8=9. Misery And Gin
TTITLE9=10. I'm A Lonesome Fugitive
TTITLE10=11. Branded Man
EXTD=
EXTT0=
EXTT1=
EXTT2=
EXTT3=
EXTT4=
EXTT5=
EXTT6=
EXTT7=
EXTT8=
EXTT9=
EXTT10=
PLAYORDER=
